<svg xmlns="http://www.w3.org/2000/svg" viewBox="0 0 16 16">
	<g fill="none" fill-rule="evenodd">
		<path fill="#82BC41" d="M2.689,3.57313 C2.7,3.65113 2.68,3.72813 2.632,3.79113 C2.585,3.85413 2.516,3.89413 2.438,3.90613 C2.36,3.91613 2.283,3.89613 2.22,3.84913 C2.09,3.75113 2.065,3.56613 2.163,3.43713 C2.21,3.37413 2.279,3.33313 2.356,3.32313 C2.371,3.32113 2.384,3.32013 2.398,3.32013 C2.461,3.32013 2.523,3.34013 2.575,3.37913 C2.637,3.42713 2.678,3.49513 2.689,3.57313 M0.584,0.52613 C0.536,0.58913 0.467,0.62913 0.389,0.64013 C0.311,0.65113 0.234,0.63113 0.171,0.58413 C0.042,0.48613 0.016,0.30113 0.114,0.17213 C0.161,0.10913 0.23,0.06813 0.307,0.05713 C0.322,0.05513 0.335,0.05413 0.349,0.05413 C0.413,0.05413 0.474,0.07513 0.526,0.11413 C0.588,0.16113 0.629,0.23013 0.64,0.30813 C0.651,0.38513 0.631,0.46313 0.584,0.52613 M3.674,1.20213 C3.524,1.20213 3.384,1.25213 3.272,1.33713 L2.428,0.30113 C2.43,0.29813 2.433,0.29513 2.436,0.29113 C2.489,0.22013 2.475,0.11913 2.405,0.06613 C2.334,0.01213 2.233,0.02713 2.179,0.09713 C2.126,0.16813 2.14,0.26913 2.21,0.32313 C2.263,0.36213 2.332,0.36513 2.385,0.33513 L3.23,1.37113 C3.168,1.42613 3.118,1.49213 3.079,1.56613 L0.678,0.46313 C0.696,0.41113 0.702,0.35613 0.694,0.30113 C0.681,0.20813 0.633,0.12613 0.559,0.07013 C0.485,0.01413 0.393,-0.00987 0.3,0.00313 C0.208,0.01613 0.126,0.06413 0.07,0.13813 C-0.045,0.29213 -0.015,0.51113 0.139,0.62713 C0.2,0.67313 0.272,0.69813 0.348,0.69813 C0.364,0.69813 0.38,0.69613 0.397,0.69413 C0.489,0.68113 0.571,0.63313 0.627,0.55913 C0.638,0.54413 0.647,0.52913 0.656,0.51213 L3.055,1.61513 C3.026,1.68613 3.008,1.76413 3.005,1.84513 L0.967,1.84513 C0.96,1.79013 0.932,1.73813 0.883,1.70113 C0.788,1.63013 0.653,1.64913 0.581,1.74313 C0.508,1.83813 0.528,1.97213 0.624,2.04313 C0.718,2.11513 0.854,2.09613 0.925,2.00113 C0.949,1.97013 0.962,1.93613 0.967,1.90013 L3.005,1.90013 C3.008,1.98813 3.03,2.07113 3.063,2.14713 L2.547,2.40313 C2.525,2.37213 2.493,2.34913 2.453,2.34113 C2.366,2.32113 2.28,2.37513 2.26,2.46213 C2.241,2.54813 2.295,2.63513 2.381,2.65413 C2.467,2.67413 2.554,2.61913 2.574,2.53313 C2.581,2.50513 2.579,2.47713 2.571,2.45113 L3.088,2.19613 C3.131,2.27513 3.192,2.34513 3.263,2.40113 L2.592,3.32513 C2.52,3.27713 2.435,3.25713 2.349,3.26813 C2.256,3.28113 2.175,3.32913 2.12,3.40413 C2.003,3.55713 2.034,3.77713 2.188,3.89213 C2.249,3.93813 2.321,3.96313 2.397,3.96313 C2.413,3.96313 2.429,3.96213 2.446,3.95913 C2.538,3.94713 2.62,3.89813 2.676,3.82413 C2.732,3.75013 2.756,3.65813 2.743,3.56613 C2.731,3.48513 2.694,3.41313 2.635,3.35813 L3.307,2.43213 C3.413,2.50213 3.54,2.54213 3.674,2.54213 C4.044,2.54213 4.344,2.24213 4.344,1.87213 C4.344,1.50213 4.044,1.20213 3.674,1.20213" transform="translate(0 6)"/>
		<path fill="#0575C1" d="M13.5455 1.38713C13.4105 1.09013 13.1155 1.00413 12.8225 1.04813 12.6005 1.08113 12.4125 1.19213 12.2365 1.32513 12.2215 1.33713 12.2065 1.34813 12.1845 1.36413L12.1845 1.09213 11.7605 1.09213 11.7605 3.24313 12.2265 3.24313 12.2265 3.18013C12.2265 2.70513 12.2255 2.22913 12.2275 1.75413 12.2275 1.73513 12.2315 1.70813 12.2445 1.69713 12.3945 1.57313 12.5555 1.47013 12.7545 1.45013 12.9285 1.43313 13.0675 1.50113 13.1165 1.67813 13.1375 1.75113 13.1505 1.82913 13.1505 1.90513 13.1545 2.33213 13.1525 2.76013 13.1525 3.18713L13.1525 3.24413 13.6185 3.24413C13.6195 3.22813 13.6215 3.21613 13.6215 3.20413L13.6215 1.75913C13.6215 1.63013 13.5985 1.50513 13.5455 1.38713M6.0298 2.84953C5.9458 2.89053 5.8578 2.91153 5.7628 2.90853 5.6648 2.90553 5.5998 2.85653 5.5788 2.76053 5.5678 2.71553 5.5608 2.66953 5.5608 2.62353 5.5598 2.25553 5.5608 1.88853 5.5608 1.52053 5.5608 1.50253 5.5628 1.48453 5.5638 1.46353L5.6198 1.46353C5.7618 1.46353 5.9058 1.46253 6.0498 1.46453 6.0818 1.46453 6.0968 1.45553 6.1058 1.42353 6.1338 1.32653 6.1668 1.22953 6.1968 1.13353 6.2018 1.12053 6.2038 1.10753 6.2078 1.08953L6.1518 1.08953C5.9698 1.08953 5.7888 1.08853 5.6068 1.09053 5.5708 1.09053 5.5598 1.07953 5.5598 1.04353 5.5608.86553 5.5608.68653 5.5608.50853L5.5608.44853C5.4008.49753 5.2488.54553 5.0928.59353L5.0928.65353 5.0928 2.70753C5.0928 2.75853 5.0938 2.80953 5.1018 2.85953 5.1338 3.05253 5.2348 3.19153 5.4248 3.25553 5.6258 3.32253 5.8258 3.29753 6.0218 3.23753 6.0938 3.21553 6.1638 3.18153 6.2208 3.15853 6.1758 3.03653 6.1348 2.92853 6.0938 2.81753 6.0768 2.82653 6.0528 2.83853 6.0298 2.84953M9.3697 2.85923C9.3657 2.85023 9.3417 2.84523 9.3277 2.84623 9.2917 2.85123 9.2557 2.86123 9.2197 2.86723 9.1307 2.88023 9.0647 2.83423 9.0497 2.74523 9.0447 2.71523 9.0417 2.68423 9.0417 2.65323L9.0417.08823 9.0417.02123C9.0177.02923 9.0027.03323 8.9857.03923 8.8667.08323 8.7477.12923 8.6277.17023 8.5867.18423 8.5707.20223 8.5717.24723 8.5727.96723 8.5727 1.68723 8.5727 2.40723 8.5727 2.55123 8.5707 2.69623 8.5727 2.84023 8.5767 3.07323 8.7017 3.22323 8.9287 3.26623 9.0707 3.29423 9.2137 3.27723 9.3537 3.24923 9.4327 3.23423 9.5097 3.20723 9.5867 3.18523 9.5827 3.17023 9.5827 3.16623 9.5807 3.16423 9.4967 3.07223 9.4157 2.97823 9.3697 2.85923M15.4234 2.66343C15.4234 2.69843 15.4124 2.72043 15.3864 2.74243 15.2704 2.83743 15.1434 2.90843 14.9884 2.91743 14.7714 2.92943 14.6194 2.82543 14.5174 2.64143 14.4264 2.47743 14.4124 2.30043 14.4264 2.11843 14.4394 1.96643 14.4774 1.82443 14.5684 1.70043 14.6844 1.54243 14.8424 1.46043 15.0344 1.43543 15.1474 1.42143 15.2584 1.43343 15.3684 1.45443 15.4084 1.46143 15.4244 1.47643 15.4234 1.51943 15.4214 1.71043 15.4224 1.90143 15.4224 2.09143 15.4224 2.28243 15.4224 2.47343 15.4234 2.66343M15.8914 2.52443L15.8914.07843 15.8914.01943C15.7444.07343 15.6054.12543 15.4654.17443 15.4314.18543 15.4214.20343 15.4224.23743 15.4234.49343 15.4224.74843 15.4224 1.00343L15.4224 1.06443C15.4024 1.06243 15.3904 1.06243 15.3784 1.06043 15.2194 1.03343 15.0604 1.02743 14.9014 1.05243 14.5864 1.10143 14.3264 1.24743 14.1434 1.51243 14.0104 1.70343 13.9504 1.91743 13.9444 2.14943 13.9374 2.38943 13.9724 2.62043 14.0864 2.83143 14.2404 3.11543 14.4774 3.28143 14.8074 3.29143 15.0384 3.29943 15.2364 3.21543 15.4094 3.06643 15.4224 3.05543 15.4344 3.04543 15.4524 3.03043 15.4754 3.09443 15.4974 3.15143 15.5164 3.20943 15.5244 3.23743 15.5374 3.24743 15.5684 3.24643 15.6994 3.24543 15.8324 3.24643 15.9654 3.24643 15.9754 3.24643 15.9854 3.24443 16.0004 3.24243 15.8854 3.01143 15.8914 2.76743 15.8914 2.52443M7.7134 2.43983C7.7134 2.51983 7.7154 2.59983 7.7134 2.67983 7.7134 2.69583 7.7064 2.71783 7.6944 2.72783 7.5594 2.84683 7.4064 2.92683 7.2204 2.91983 6.9124 2.90883 6.8404 2.63983 6.9124 2.44983 6.9514 2.34883 7.0344 2.29683 7.1334 2.27183 7.2054 2.25283 7.2804 2.24283 7.3564 2.23783 7.4724 2.22883 7.5884 2.22683 7.7134 2.22183L7.7134 2.43983zM8.1834 2.63283C8.1834 2.36583 8.1844 2.09783 8.1824 1.82983 8.1824 1.76883 8.1784 1.70683 8.1724 1.64683 8.1414 1.35683 7.9694 1.15183 7.6884 1.07983 7.3874 1.00183 7.0904 1.02983 6.7994 1.13183 6.7114 1.16283 6.6264 1.20583 6.5374 1.24483 6.5944 1.35583 6.6474 1.45583 6.7014 1.55983 6.7234 1.54983 6.7374 1.54283 6.7524 1.53483 6.9474 1.43683 7.1514 1.38483 7.3714 1.40783 7.5434 1.42683 7.6654 1.52683 7.6994 1.68983 7.7124 1.74783 7.7094 1.80883 7.7144 1.86783 7.7164 1.89583 7.7014 1.90083 7.6784 1.90183 7.6114 1.90283 7.5454 1.90783 7.4804 1.90883 7.3064 1.91283 7.1324 1.91683 6.9624 1.95783 6.5984 2.04583 6.4064 2.28383 6.4124 2.63983 6.4174 3.00083 6.6934 3.27783 7.0554 3.29283 7.3054 3.30283 7.5214 3.22583 7.7074 3.06183 7.7184 3.05183 7.7304 3.04383 7.7444 3.03183 7.7594 3.07183 7.7724 3.10683 7.7844 3.14183 7.8224 3.24583 7.8214 3.24583 7.9314 3.24583L8.2854 3.24583C8.2844 3.23683 8.2854 3.23183 8.2834 3.22783 8.1954 3.03883 8.1834 2.83683 8.1834 2.63283zM10.0455 1.94563C10.0105 1.67963 10.2315 1.40963 10.4925 1.40263 10.6305 1.39763 10.7475 1.44863 10.8325 1.56163 10.9165 1.67463 10.9455 1.80363 10.9535 1.94563L10.0455 1.94563zM10.5785 1.03863C10.2115 1.01263 9.8735 1.18963 9.7105 1.52163 9.5295 1.89063 9.5155 2.27363 9.6525 2.65763 9.7665 2.97563 9.9945 3.17763 10.3245 3.25663 10.6065 3.32263 10.8835 3.30163 11.1535 3.20263 11.2295 3.17463 11.3015 3.13563 11.3775 3.10063 11.3265 2.98563 11.2805 2.88163 11.2345 2.77463 11.2155 2.78363 11.2035 2.78963 11.1915 2.79663 11.0165 2.88563 10.8315 2.92563 10.6355 2.91763 10.3835 2.90663 10.1765 2.75963 10.0885 2.52463 10.0615 2.44863 10.0435 2.36963 10.0475 2.28563L11.4285 2.28563C11.4305 2.27363 11.4325 2.26563 11.4335 2.25863 11.4365 2.08563 11.4285 1.91463 11.3855 1.74563 11.2815 1.33963 11.0085 1.06763 10.5785 1.03863z" transform="translate(0 6)"/>
	</g>
</svg>
